<svg width="65px" height="65px" viewBox="0 0 65 65" version="1.1" xmlns="http://www.w3.org/2000/svg" xmlns:xlink="http://www.w3.org/1999/xlink">
    <!-- Generator: Sketch 3.8.3 (29802) - http://www.bohemiancoding.com/sketch -->
    <title>Slice 1</title>
    <desc>Created with Sketch.</desc>
    <defs></defs>
    <g id="Page-1" stroke="none" stroke-width="1" fill="none" fill-rule="evenodd">
        <g id="noun_53561" fill="#FAFAFA">
            <g transform="translate(8.000000, 8.000000)" id="Shape">
                <path d="M33.3689198,22.6794582 L24.6644311,31.3829193 L15.9599423,22.6794582 C15.7631407,22.4831704 15.4450723,22.4831704 15.2482707,22.6794582 C15.0514691,22.8762598 15.0514691,23.194842 15.2482707,23.3916436 L24.3088522,32.4511975 C24.4069961,32.5493414 24.5359705,32.5981564 24.6644311,32.5981564 C24.7928916,32.5981564 24.9218661,32.5488275 25.0200099,32.4506836 L34.0805915,23.3911298 C34.2773931,23.1943282 34.2773931,22.875746 34.0805915,22.6789444 C33.8837898,22.4831704 33.5652076,22.4831704 33.3689198,22.6794582 L33.3689198,22.6794582 Z"></path>
                <path d="M33.3689198,16.8776646 L24.6644311,25.5816396 L15.9599423,16.8776646 C15.7631407,16.680863 15.4450723,16.680863 15.2482707,16.8776646 C15.0514691,17.0744662 15.0514691,17.3930485 15.2482707,17.5898501 L24.3088522,26.6499178 C24.4069961,26.7480616 24.5359705,26.7968767 24.6644311,26.7968767 C24.7928916,26.7968767 24.9218661,26.7480616 25.0200099,26.6499178 L34.0805915,17.5898501 C34.2773931,17.3930485 34.2773931,17.0744662 34.0805915,16.8776646 C33.8837898,16.680863 33.5652076,16.680863 33.3689198,16.8776646 L33.3689198,16.8776646 Z"></path>
                <path d="M24.6644311,0 C11.0645665,0 0,11.0645665 0,24.6644311 C0,38.2642956 11.0645665,49.3288621 24.6644311,49.3288621 C38.2642956,49.3288621 49.3288621,38.2642956 49.3288621,24.6644311 C49.3288621,11.0645665 38.2642956,0 24.6644311,0 L24.6644311,0 Z M24.6644311,48.322245 C11.6195162,48.322245 1.00661709,37.7093459 1.00661709,24.6644311 C1.00661709,11.6195162 11.6195162,1.00661709 24.6644311,1.00661709 C37.7093459,1.00661709 48.322245,11.6195162 48.322245,24.6644311 C48.322245,37.7093459 37.7093459,48.322245 24.6644311,48.322245 L24.6644311,48.322245 Z" stroke="#FAFAFA" stroke-width="2"></path>
            </g>
        </g>
    </g>
</svg>