<svg xmlns="http://www.w3.org/2000/svg" width="395.888" height="395.888" viewBox="0 0 395.888 395.888">
	<symbol id="chart">
	  <path d="M376.218 395.888H32.828c-12.806 0-23.225-10.42-23.225-23.226V10.594c0-14.125 27.87-14.125 27.87 0v357.424h338.744c13.425 0 13.425 27.87 0 27.87z"/>
	  <path d="M360.92 350.66c3.83 0 6.967-3.136 6.967-6.968V95.808c0-3.832-3.136-6.968-6.968-6.968h-88.13c-3.836 0-6.97 3.136-6.97 6.968v247.884c0 3.832 3.134 6.967 6.97 6.967h88.13zm-118.953 0c3.832 0 6.97-3.136 6.97-6.968V40.07c0-3.833-3.138-6.968-6.97-6.968h-71.995c-3.832 0-6.968 3.135-6.968 6.967v303.62c0 3.832 3.136 6.967 6.968 6.967h71.995zm-102.817 0c3.833 0 6.968-3.136 6.968-6.968v-179.37c0-3.833-3.135-6.97-6.967-6.97H60.77c-3.832 0-6.968 3.137-6.968 6.97v179.372c0 3.832 3.135 6.967 6.967 6.967h78.384z"/>
	</symbol>
</svg>