<?xml version="1.0" encoding="utf-8"?>
<!-- Generator: Adobe Illustrator 19.1.0, SVG Export Plug-In . SVG Version: 6.00 Build 0)  -->
<svg version="1.1" id="Layer_1" xmlns="http://www.w3.org/2000/svg" xmlns:xlink="http://www.w3.org/1999/xlink" x="0px" y="0px"
	 viewBox="0 0 360.1 92.6" style="enable-background:new 0 0 360.1 92.6;" xml:space="preserve">
<style type="text/css">
	.st0{fill:none;stroke:#FFFFFF;stroke-width:0.72;stroke-linecap:round;stroke-linejoin:round;}
	.st1{fill:#FFFFFF;stroke:#FFFFFF;stroke-width:0.72;stroke-linecap:round;stroke-linejoin:round;}
	.st2{fill:#FFFFFF;}
	.st3{stroke:#FFFFFF;stroke-width:0.24;stroke-linecap:round;stroke-linejoin:round;}
	.st4{fill:none;stroke:#FFFFFF;stroke-width:0.24;stroke-linecap:round;stroke-linejoin:round;}
	.st5{fill:none;stroke:#FFFFFF;stroke-width:0.72;stroke-linejoin:round;}
</style>
<line class="st0" x1="0.2" y1="18.2" x2="124.9" y2="18.2"/>
<line class="st0" x1="29" y1="-0.6" x2="29" y2="93.2"/>
<path class="st0" d="M91,0.1c1.6,5.7,2.5,11.8,2.5,18C93.5,53.9,64.6,83,29,83c-10.4,0-20.2-2.5-28.8-6.8"/>
<path class="st0" d="M88.3,0.1c1.7,5.7,2.6,11.7,2.6,18c0,34.5-27.8,62.3-61.9,62.3c-10.4,0-20.2-2.6-28.8-7.1"/>
<polyline class="st1" points="29,0.1 29,18.1 21.6,0.1 "/>
<polyline class="st1" points="47,0.1 29,18.1 36.6,0.1 "/>
<polygon class="st1" points="29,18.1 51.2,9 93.4,18.2 "/>
<polygon class="st1" points="29,18.1 51.2,27.5 74.4,64 "/>
<polygon class="st1" points="29,18.1 38.2,40.5 29,82.9 "/>
<polyline class="st1" points="0.2,46.9 29,18.1 19.7,40.4 0.2,53 "/>
<polyline class="st1" points="0.2,18.1 29,18.1 6.8,27.3 0.2,25.9 "/>
<polyline class="st1" points="10.7,0.1 28.3,17.5 6.2,8.1 0.9,0.1 "/>
<polyline class="st0" points="56.7,0.1 51.3,8.4 29.9,17.2 36.9,0.1 "/>
<polyline class="st0" points="36.1,0.1 29,16.9 21.9,0.1 "/>
<polyline class="st0" points="20.9,0.1 28.1,17.3 6.8,8.5 1.2,0.1 "/>
<polyline class="st0" points="0.2,10.7 6.4,9.3 27.8,18.1 6.7,27.1 0.2,25.7 "/>
<polyline class="st0" points="0.2,38.2 6.9,28 28,18.9 19.4,40.5 0.2,53 "/>
<polygon class="st0" points="28.9,82.9 20.2,40.8 29,19.3 37.8,40.8 "/>
<polygon class="st0" points="74.9,64.4 38.7,40.4 30,19.1 51.3,28 "/>
<polygon class="st0" points="93.4,18.2 51.6,27.1 30.1,18.2 51.6,9.2 "/>
<g>
	<polygon class="st2" points="170.1,84.9 169.3,84.9 168.4,84.9 168.1,84.9 167.9,84.9 167.9,69.4 174.3,69.4 174.3,71.6 
		170.1,71.6 170.1,75.7 174.3,75.7 174.3,77.8 170.1,77.8 	"/>
	<path class="st2" d="M180.7,77.6v-0.6c0-0.7-0.1-1.3-0.3-1.7c-0.1-0.4-0.5-0.6-1.2-0.6c-0.6,0-1,0.2-1.2,0.7
		c-0.2,0.4-0.3,1-0.3,1.8v0.5V80v0.6c0,0.7,0.1,1.3,0.2,1.7c0.2,0.4,0.6,0.6,1.2,0.6c0.7,0,1.1-0.3,1.2-0.8c0.1-0.5,0.2-1.2,0.2-2.2
		V77.6z M175.5,77.9c0-1.8,0.2-3.1,0.7-4c0.5-0.9,1.5-1.4,3-1.4c1.5,0,2.6,0.5,3,1.3c0.5,0.9,0.7,2.2,0.7,4v1.8
		c0,2.2-0.3,3.7-0.9,4.3c-0.6,0.7-1.5,1-2.8,1c-1.5,0-2.5-0.5-3-1.4c-0.5-0.9-0.7-2.3-0.7-4V77.9z"/>
	<path class="st2" d="M186.9,72.7v7.7v0.3c0,0.5,0,0.9,0.1,1.3c0.1,0.4,0.2,0.6,0.5,0.7c0.2,0.1,0.5,0.2,0.7,0.2
		c0.3,0,0.6-0.1,0.8-0.2c0.3-0.1,0.4-0.4,0.5-0.9c0.1-0.5,0.1-0.9,0.1-1.4v-7.7h2.2v12.1h-2.2v-0.4v-0.5c-0.2,0.4-0.5,0.7-0.9,0.8
		c-0.4,0.2-0.8,0.3-1.3,0.3c-0.6,0-1.1-0.2-1.6-0.5c-0.5-0.3-0.8-0.8-1-1.4c0-0.3-0.1-0.6-0.1-0.9c0-0.4-0.1-0.7-0.1-1.1v-8.4H186.9
		z"/>
	<path class="st2" d="M196.7,84.9h-2.3V72.7h2.2l0,1.1c0.1-0.4,0.3-0.7,0.4-0.9c0.2-0.1,0.6-0.2,1.2-0.2h1.2v2h-2.7V84.9z"/>
	<path class="st2" d="M213,74.1h-2.3c0-0.3,0-0.5-0.1-0.7c0-0.2-0.1-0.5-0.2-0.7c-0.2-0.5-0.4-0.8-0.8-1c-0.2-0.1-0.4-0.2-0.5-0.2
		c-0.1-0.1-0.3-0.1-0.4-0.1c-0.3,0-0.5,0.1-0.7,0.2c-0.3,0.2-0.5,0.4-0.6,0.6c-0.1,0.3-0.2,0.6-0.2,0.9c0,0.5,0.1,0.9,0.4,1.3
		c0.3,0.4,0.8,0.7,1.5,1.2l0.8,0.5c1.4,0.9,2.3,1.6,2.8,2.3c0.5,0.6,0.7,1.5,0.7,2.7c0,0.6-0.2,1.3-0.5,1.9
		c-0.3,0.7-0.9,1.2-1.5,1.5c-0.7,0.3-1.4,0.5-2.2,0.5c-0.5,0-1,0-1.4-0.2c-0.5-0.1-1-0.4-1.5-0.7c-0.6-0.4-1-1-1.3-1.8
		c-0.3-0.8-0.4-1.7-0.4-2.6h2.3c0,0.2,0,0.5,0.1,0.7c0,0.3,0.1,0.6,0.2,0.9c0.1,0.6,0.4,1,0.8,1.2c0.4,0.2,0.8,0.3,1.2,0.3
		c0.4,0,0.7-0.1,1-0.3c0.3-0.2,0.5-0.4,0.7-0.7c0.2-0.3,0.2-0.6,0.2-1c0-0.7-0.1-1.2-0.4-1.4c-0.3-0.3-0.9-0.7-1.7-1.3l-0.8-0.6
		c-1.3-0.9-2.1-1.6-2.6-2.2c-0.4-0.6-0.6-1.5-0.6-2.6c0-0.6,0.2-1.3,0.5-1.9c0.3-0.6,0.8-1.1,1.5-1.5s1.3-0.5,2-0.5
		c0.7,0,1.4,0.2,2.1,0.6c0.7,0.4,1.2,1,1.6,1.9C212.8,72.5,213,73.3,213,74.1z"/>
	<path class="st2" d="M215.5,70.5h2.3v2.2h1.7v2h-1.7v6.5c0,0.8,0.1,1.4,0.2,1.9c0.1,0.4,0.4,1,0.9,1.7h-2.5c-0.3-0.5-0.6-1-0.7-1.5
		c0-0.2-0.1-0.4-0.1-0.7c0-0.3-0.1-0.6-0.1-0.9v-7h-1.3v-2h1.3V70.5z"/>
	<path class="st2" d="M225.8,79c-0.9,0.6-1.5,1.1-1.7,1.4c-0.2,0.3-0.4,0.6-0.4,1v0.2c0,0.3,0.1,0.6,0.1,0.8
		c0.1,0.2,0.2,0.4,0.4,0.5c0.2,0.1,0.4,0.2,0.7,0.2c0.2,0,0.5-0.1,0.8-0.2c0.3-0.1,0.5-0.5,0.6-0.9c0.1-0.4,0.1-1,0.1-1.5v-0.5v-1.3
		L225.8,79z M229.1,84.9H227l-0.1-0.5l-0.1-0.8c-0.3,0.5-0.6,0.9-0.9,1.1c-0.3,0.2-0.7,0.3-1.2,0.3c-0.5,0-0.9-0.1-1.3-0.2
		c-0.4-0.1-0.8-0.4-1.1-0.8c-0.3-0.4-0.5-0.8-0.6-1.2c-0.1-0.4-0.2-0.9-0.2-1.4c0-0.4,0.1-0.9,0.2-1.5c0.1-0.5,0.4-1,0.9-1.3
		c0.2-0.2,0.5-0.3,0.7-0.5c0.3-0.2,0.6-0.3,0.9-0.5l1.7-0.8c0.4-0.3,0.7-0.6,0.7-1c0-0.3,0-0.5-0.1-0.7c-0.1-0.2-0.2-0.4-0.5-0.5
		c-0.2-0.1-0.5-0.2-0.8-0.2c-0.2,0-0.4,0-0.6,0.1c-0.3,0.1-0.5,0.3-0.7,0.6c-0.2,0.3-0.3,0.7-0.3,1.3h-2c0.2-1.2,0.4-2,0.6-2.5
		c0.3-0.5,0.6-0.8,1-1c0.2-0.1,0.3-0.1,0.5-0.2c0.2,0,0.4-0.1,0.6-0.1l1.1-0.1c0.4,0,0.8,0,1.2,0.1c0.4,0.1,0.7,0.2,1.1,0.5
		c0.4,0.3,0.7,0.8,0.8,1.4c0.2,0.7,0.2,1.4,0.2,2.3v5.9C228.7,83.7,228.8,84.4,229.1,84.9z"/>
	<path class="st2" d="M233,84.9h-2.3V72.7h2.2l0,1.1c0.1-0.4,0.3-0.7,0.4-0.9c0.2-0.1,0.6-0.2,1.2-0.2h1.1v2H233V84.9z"/>
	<path class="st2" d="M249.8,74.4h-2.3c-0.1-0.9-0.2-1.6-0.2-1.9c-0.1-0.4-0.3-0.6-0.7-0.8c-0.4-0.2-0.8-0.3-1.1-0.3
		c-0.5,0-0.9,0.1-1.2,0.3c-0.3,0.2-0.5,0.5-0.7,0.9c-0.1,0.4-0.2,0.9-0.2,1.4v0.4v5.4c0,0.6,0,1.2,0.1,1.6c0.1,0.5,0.3,0.8,0.7,1.1
		c0.4,0.3,0.8,0.4,1.4,0.4h0.4l0.4-0.1c0.6-0.3,0.9-0.6,1-1.1c0.1-0.5,0.1-1,0.1-1.3v-1h2.3V80c0,0.5,0,1-0.1,1.4
		c0,0.4-0.1,0.8-0.3,1.2c-0.2,0.7-0.6,1.2-1.1,1.5c-0.6,0.4-1.1,0.6-1.5,0.7c-0.4,0.1-0.9,0.2-1.4,0.2c-0.9,0-1.7-0.2-2.3-0.5
		c-0.6-0.3-1.1-0.8-1.5-1.5c-0.4-0.6-0.5-1.6-0.5-2.8v-5.9c0-1.1,0.1-2,0.2-2.6c0.2-0.6,0.5-1.2,1.1-1.6c0.6-0.4,1.1-0.7,1.6-0.8
		c0.5-0.1,1-0.2,1.5-0.2c0.3,0,0.6,0,0.9,0.1c0.3,0,0.6,0.1,0.9,0.2c0.6,0.2,1.1,0.5,1.6,1c0.5,0.5,0.7,1.1,0.7,1.8l0.1,0.9V74.4z"
		/>
	<path class="st2" d="M255.9,84.9v-7.5v-0.9c0-0.2,0-0.4,0-0.5c0-0.2,0-0.4-0.1-0.7c0-0.3-0.2-0.5-0.5-0.6c-0.3-0.1-0.5-0.2-0.7-0.2
		c-0.3,0-0.5,0.1-0.8,0.2c-0.2,0.1-0.4,0.4-0.5,0.8c-0.1,0.4-0.1,0.9-0.1,1.4v0.4v7.5H251V69.4h2.3v4.3c0.3-0.4,0.5-0.7,0.8-0.9
		c0.2-0.1,0.5-0.2,0.7-0.3l0.7-0.1h0.4c0.1,0,0.3,0.1,0.4,0.1c0.1,0,0.4,0.1,0.8,0.3c0.4,0.2,0.6,0.5,0.8,1c0.2,0.5,0.3,1.2,0.3,1.9
		v0.6v8.5L255.9,84.9z"/>
	<path class="st2" d="M264.7,79c-0.9,0.6-1.5,1.1-1.7,1.4c-0.2,0.3-0.4,0.6-0.4,1v0.2c0,0.3,0,0.6,0.1,0.8c0.1,0.2,0.2,0.4,0.4,0.5
		c0.2,0.1,0.4,0.2,0.7,0.2c0.2,0,0.5-0.1,0.8-0.2c0.3-0.1,0.5-0.5,0.6-0.9c0.1-0.4,0.1-1,0.1-1.5v-0.5v-1.3L264.7,79z M268,84.9H266
		l-0.1-0.5l-0.1-0.8c-0.3,0.5-0.6,0.9-0.9,1.1c-0.3,0.2-0.7,0.3-1.2,0.3c-0.5,0-0.9-0.1-1.3-0.2c-0.4-0.1-0.8-0.4-1-0.8
		c-0.3-0.4-0.5-0.8-0.6-1.2c-0.1-0.4-0.2-0.9-0.2-1.4c0-0.4,0.1-0.9,0.2-1.5c0.1-0.5,0.4-1,0.9-1.3c0.2-0.2,0.4-0.3,0.7-0.5
		c0.3-0.2,0.6-0.3,0.9-0.5l1.7-0.8c0.4-0.3,0.7-0.6,0.7-1c0-0.3,0-0.5-0.1-0.7c-0.1-0.2-0.2-0.4-0.5-0.5c-0.2-0.1-0.5-0.2-0.8-0.2
		c-0.1,0-0.4,0-0.6,0.1c-0.3,0.1-0.5,0.3-0.7,0.6c-0.2,0.3-0.3,0.7-0.3,1.3h-2c0.2-1.2,0.4-2,0.6-2.5c0.3-0.5,0.6-0.8,1-1
		c0.2-0.1,0.4-0.1,0.5-0.2c0.2,0,0.4-0.1,0.6-0.1l1.1-0.1c0.4,0,0.8,0,1.2,0.1c0.4,0.1,0.7,0.2,1.1,0.5c0.4,0.3,0.7,0.8,0.8,1.4
		c0.2,0.7,0.2,1.4,0.2,2.3v5.9C267.7,83.7,267.8,84.4,268,84.9z"/>
	<path class="st2" d="M272,84.9h-2.3V72.7h2.2l0,1.1c0.1-0.4,0.3-0.7,0.4-0.9c0.2-0.1,0.6-0.2,1.2-0.2h1.2v2H272V84.9z"/>
	<path class="st2" d="M277,69.2c0.4,0,0.7,0.1,1,0.4c0.3,0.2,0.4,0.6,0.4,0.9c0,0.4-0.1,0.7-0.4,1c-0.2,0.3-0.6,0.4-1,0.4
		c-0.4,0-0.7-0.1-1-0.4c-0.3-0.3-0.4-0.6-0.4-1c0-0.4,0.1-0.7,0.4-1C276.3,69.3,276.6,69.2,277,69.2z M275.8,72.7h2.3v12.1h-2.3
		V72.7z"/>
	<path class="st2" d="M281,70.5h2.3v2.2h1.7v2h-1.7v6.5c0,0.8,0.1,1.4,0.2,1.9c0.1,0.4,0.4,1,0.9,1.7H282c-0.3-0.5-0.6-1-0.7-1.5
		c-0.1-0.2-0.1-0.4-0.1-0.7c0-0.3-0.1-0.6-0.1-0.9v-7h-1.3v-2h1.3V70.5z"/>
	<path class="st2" d="M288,72.7l1.5,7.7l1.6-7.7h2.3l-2.8,12.5c-0.3,1.4-0.8,2.2-1.4,2.5c-0.6,0.3-1.6,0.5-3,0.5v-2h0.5l0.8-0.1
		c0.2,0,0.4-0.1,0.6-0.3c0.2-0.2,0.3-0.5,0.3-0.9c0-0.2,0-0.4-0.1-0.7l-0.1-0.7l-2.4-10.9H288z"/>
</g>
<polygon class="st2" points="202.3,14.3 196.1,18.8 198.5,26.2 192.3,21.7 186.1,26.2 188.5,18.8 182.3,14.3 190,14.3 192.3,7 
	194.7,14.3 "/>
<polygon class="st2" points="227.4,14.3 221.2,18.8 223.6,26.2 217.4,21.7 211.2,26.2 213.6,18.8 207.4,14.3 215,14.3 217.4,7 
	219.7,14.3 "/>
<polygon class="st2" points="253.2,14.3 247,18.8 249.4,26.2 243.2,21.7 237,26.2 239.4,18.8 233.1,14.3 240.8,14.3 243.2,7 
	245.6,14.3 "/>
<polygon class="st2" points="278.1,14.3 272,18.8 274.3,26.2 268.1,21.7 261.9,26.2 264.3,18.8 258.1,14.3 265.8,14.3 268.1,7 
	270.5,14.3 "/>
<line class="st3" x1="108.7" y1="34.2" x2="350.9" y2="34.2"/>
<line class="st3" x1="108.7" y1="62.9" x2="350.9" y2="62.9"/>
<g>
	<path class="st2" d="M121.5,45.4h-3.9c-0.1-1.2-0.3-2-0.4-2.4c-0.1-0.4-0.4-0.6-0.9-0.8c-0.5-0.2-1-0.3-1.5-0.3
		c-0.6,0-1.1,0.1-1.6,0.3c-0.4,0.2-0.7,0.6-0.9,1c-0.1,0.5-0.2,1-0.2,1.6v0.4v6.3c0,0.7,0,1.3,0.2,1.8c0.1,0.5,0.4,0.9,0.9,1.2
		c0.5,0.3,1.1,0.4,1.8,0.4h0.5l0.5-0.1c0.8-0.3,1.2-0.7,1.3-1.2c0.1-0.6,0.2-1.1,0.2-1.4v-1.4h4v1c0,0.6,0,1.2-0.1,1.7
		c-0.1,0.5-0.2,0.9-0.4,1.2c-0.3,1-0.9,1.8-1.8,2.2c-0.9,0.5-1.6,0.7-2.3,0.9c-0.7,0.1-1.4,0.2-2.1,0.2c-1.4,0-2.6-0.2-3.5-0.6
		c-0.9-0.4-1.7-1-2.3-1.8c-0.6-0.8-0.9-1.9-0.9-3.4v-7c0-1.3,0.1-2.3,0.4-3.1c0.2-0.8,0.8-1.4,1.7-1.9c0.9-0.5,1.7-0.8,2.4-1
		c0.7-0.1,1.5-0.2,2.3-0.2c0.5,0,1,0,1.4,0.1c0.4,0,0.9,0.1,1.4,0.3c0.9,0.2,1.7,0.6,2.5,1.2c0.8,0.6,1.1,1.4,1.1,2.3l0.1,1V45.4z"
		/>
	<polygon class="st2" points="125.3,39.1 129.2,39.1 129.2,46.3 134.3,46.3 134.3,39.1 138.2,39.1 138.2,57.8 134.3,57.8 
		134.3,49.5 129.2,49.5 129.2,57.8 125.3,57.8 	"/>
	<path class="st2" d="M146.1,50.3h2.8l-1.5-7.9L146.1,50.3z M144.6,39.1h5.9l4.2,18.6h-4l-1.1-4.5h-3.9l-1,4.5h-4L144.6,39.1z"/>
	<path class="st2" d="M161.4,47.2h2.5c0.4,0,0.7-0.1,1-0.2c0.3-0.1,0.6-0.4,0.9-0.9c0.2-0.3,0.3-0.8,0.3-1.3c0-0.7-0.2-1.3-0.5-1.6
		c-0.3-0.4-0.8-0.6-1.4-0.8c-0.3-0.1-0.7-0.1-1.1-0.2c-0.4,0-0.8-0.1-1.1-0.1h-0.6h-0.1V47.2z M163.9,50.4h-2.4v7.4h-3.9V39.1h4.3
		c1.8,0,3.3,0.1,4.5,0.4c1.2,0.3,2.1,0.8,2.6,1.5c0.3,0.4,0.5,0.8,0.7,1.1c0.2,0.3,0.3,0.6,0.4,1c0.1,0.3,0.2,0.6,0.2,0.9
		c0,0.3,0.1,0.6,0.1,0.9c0,0.6-0.1,1.2-0.3,1.7c-0.2,0.5-0.5,1-0.9,1.4l-0.4,0.6c-0.1,0.1-0.3,0.2-0.5,0.3c0.7,0.5,1.2,1.1,1.4,1.8
		c0.2,0.7,0.4,1.6,0.4,2.7v2.1c0,0.7,0.1,1.5,0.3,2.3H166c-0.1-0.3-0.1-0.7-0.2-1.1c-0.1-0.4-0.1-0.8-0.1-1l-0.1-2.1
		c0-0.9-0.1-1.7-0.4-2.3C165,50.7,164.5,50.4,163.9,50.4z"/>
	<rect x="174.2" y="39.1" class="st2" width="3.9" height="18.6"/>
	<polygon class="st2" points="180.9,42.2 180.9,39.2 193.1,39.2 193.1,42.2 189,42.2 189,57.8 185.1,57.8 185.1,42.2 	"/>
	<polygon class="st2" points="195.4,39.1 199.6,39.1 202.7,46.8 205.7,39.1 209.9,39.1 204.6,51.1 204.6,57.8 200.7,57.8 
		200.7,51.1 	"/>
	<polygon class="st2" points="224.5,45.5 224.5,57.8 220.5,57.8 220.5,39.1 224.9,39.1 230.3,51.3 230.3,39.1 234.2,39.1 
		234.2,57.8 229.9,57.8 	"/>
	<path class="st2" d="M242.5,50.3h2.8l-1.5-7.9L242.5,50.3z M240.9,39.1h5.9l4.2,18.6h-4.1l-1.1-4.5H242l-1,4.5h-4L240.9,39.1z"/>
	<polygon class="st2" points="251.9,39.1 256.2,39.1 259.2,53.2 262.2,39.1 266.4,39.1 262,57.8 256.6,57.8 	"/>
	<rect x="269.2" y="39.1" class="st2" width="3.9" height="18.6"/>
	<path class="st2" d="M286,50.3h-3.1v-3h6.8v10.5l-2.8-1.7c-0.2,0.4-0.6,0.8-1.1,1.2c-0.6,0.4-1.2,0.6-1.8,0.7l-1.1,0.1
		c-0.6,0-1.1,0-1.6-0.1c-0.4-0.1-1.1-0.4-2-0.7c-0.9-0.4-1.5-1-2-1.9c-0.4-0.9-0.6-1.9-0.6-3.1v-7c0-1.3,0.1-2.3,0.4-3.1
		c0.2-0.8,0.8-1.4,1.6-1.9c0.9-0.5,1.7-0.8,2.5-1c0.3-0.1,0.7-0.1,1.1-0.2s0.8-0.1,1.1-0.1c0.9,0,2,0.2,3.4,0.6
		c1.3,0.4,2.2,1.1,2.6,2.1c0.2,0.5,0.3,0.9,0.4,1.3c0.1,0.3,0.1,0.6,0.1,0.9l0.1,1.7H286c0-0.9-0.1-1.7-0.2-2.2
		c-0.2-0.5-0.5-0.9-1-1c-0.5-0.2-1-0.3-1.5-0.3c-0.6,0-1.2,0.1-1.6,0.3c-0.4,0.2-0.7,0.6-0.9,1c-0.2,0.5-0.3,1-0.3,1.7v0.4v6.3
		c0,0.8,0,1.4,0.2,1.9c0.1,0.5,0.4,0.9,0.9,1.1c0.5,0.3,1.1,0.4,1.8,0.4c0.4,0,0.8-0.1,1.4-0.3c0.5-0.2,0.9-0.5,1-1.1
		c0.1-0.6,0.2-1.1,0.2-1.5V51V50.3z"/>
	<path class="st2" d="M298.1,50.3h2.8l-1.5-7.9L298.1,50.3z M296.5,39.1h5.9l4.2,18.6h-4.1l-1.1-4.5h-3.9l-1,4.5h-4L296.5,39.1z"/>
	<polygon class="st2" points="307.1,42.2 307.1,39.2 319.3,39.2 319.3,42.2 315.3,42.2 315.3,57.8 311.3,57.8 311.3,42.2 	"/>
	<path class="st2" d="M331.3,44.7c0-1-0.2-1.7-0.6-2.1c-0.4-0.4-1.1-0.7-2.1-0.7c-1.1,0-1.8,0.2-2.1,0.7c-0.4,0.4-0.5,1.1-0.5,2.1
		v7.4c0,1,0.2,1.7,0.5,2.2c0.4,0.4,1.1,0.6,2.1,0.6c1,0,1.7-0.2,2.1-0.7c0.4-0.5,0.6-1.2,0.6-2.1V44.7z M335.3,51.3
		c0,2.1-0.4,3.7-1.3,4.9c-0.9,1.2-2.7,1.8-5.3,1.8c-2.7,0-4.5-0.6-5.3-1.8c-0.9-1.2-1.3-2.8-1.3-4.9v-5.8c0-2.6,0.6-4.4,1.8-5.3
		c1.2-0.9,2.8-1.3,4.9-1.3c2.6,0,4.4,0.6,5.3,1.8c0.9,1.2,1.4,2.8,1.4,4.9V51.3z"/>
	<path class="st2" d="M342.9,47.2h2.5c0.4,0,0.7-0.1,1-0.2c0.3-0.1,0.6-0.4,0.8-0.9c0.2-0.3,0.3-0.8,0.3-1.3c0-0.7-0.1-1.3-0.5-1.6
		c-0.3-0.4-0.8-0.6-1.4-0.8c-0.3-0.1-0.7-0.1-1.1-0.2c-0.4,0-0.8-0.1-1.1-0.1H343h-0.1V47.2z M345.3,50.4h-2.4v7.4h-3.9V39.1h4.3
		c1.8,0,3.4,0.1,4.5,0.4c1.2,0.3,2.1,0.8,2.6,1.5c0.3,0.4,0.5,0.8,0.7,1.1c0.2,0.3,0.3,0.6,0.4,1c0.1,0.3,0.1,0.6,0.2,0.9
		c0,0.3,0.1,0.6,0.1,0.9c0,0.6-0.1,1.2-0.3,1.7c-0.2,0.5-0.5,1-0.9,1.4l-0.4,0.6c-0.1,0.1-0.3,0.2-0.5,0.3c0.7,0.5,1.1,1.1,1.4,1.8
		c0.2,0.7,0.4,1.6,0.4,2.7v2.1c0,0.7,0.1,1.5,0.3,2.3h-4.3c-0.1-0.3-0.1-0.7-0.2-1.1c-0.1-0.4-0.1-0.8-0.1-1l-0.1-2.1
		c0-0.9-0.1-1.7-0.4-2.3C346.4,50.7,345.9,50.4,345.3,50.4z"/>
</g>
<rect x="0.1" y="0.1" class="st4" width="360" height="92.4"/>
<line class="st5" x1="6" y1="8.7" x2="28" y2="17.8"/>
</svg>
