<?xml version="1.0" encoding="UTF-8"?>
<svg width="1441px" height="800px" viewBox="0 0 1441 800" version="1.1" xmlns="http://www.w3.org/2000/svg" xmlns:xlink="http://www.w3.org/1999/xlink">
    <!-- Generator: Sketch 52.5 (67469) - http://www.bohemiancoding.com/sketch -->
    <title>Slice</title>
    <desc>Created with Sketch.</desc>
    <g id="Page-1" stroke="none" stroke-width="1" fill="none" fill-rule="evenodd">
        <g id="Increasing-Awareness-carousel-4" transform="translate(1.000000, 0.000000)">
            <rect fill="#FFFFFF" x="0" y="0" width="1440" height="800"></rect>
            <polygon id="Fill-1-Copy-42" fill="#FFFFFF" points="0 800 1440 800 1440 0 0 0"></polygon>
            <path d="M1342.96009,725.0761 C1374.864,717.294116 1405.85842,706.35846 1435.52226,692.33548 L1375.19959,576.249944 C1324.66867,599.247033 1269.05272,610.161286 1211.95015,607.652902 C1201.40065,607.189536 1190.94414,606.268154 1180.59877,604.9123 C1179.10789,604.711115 1177.617,604.486388 1176.12504,604.267012 C1174.64164,604.052986 1173.15823,603.84324 1171.68124,603.611022 C1161.37862,601.956601 1151.09311,599.853796 1140.84927,597.284415 C1085.40431,583.379149 1035.20791,557.033624 993.32735,520.560392 L902.442031,614.593764 C926.877613,636.507881 953.469905,655.839775 981.864086,672.359368 C1035.48258,703.80085 1094.8498,724.597752 1157.3217,733.585771 C1219.76368,742.816711 1282.59253,739.83961 1342.96009,725.0761 Z" id="Fill-1-Copy-38" fill="#FF573B" transform="translate(1168.982145, 629.702029) scale(-1, -1) rotate(147.000000) translate(-1168.982145, -629.702029) "></path>
            <path d="M378,196 C378,93.826048 295.172443,11 193,11 C90.8275567,11 8,93.826048 8,196 C8,298.172443 90.8275567,381 193,381 C295.172443,381 378,298.172443 378,196 Z" id="Fill-3-Copy-6" fill="#3928BD"></path>
        </g>
    </g>
</svg>