<?xml version="1.0" encoding="UTF-8"?>
<svg width="1441px" height="800px" viewBox="0 0 1441 800" version="1.1" xmlns="http://www.w3.org/2000/svg" xmlns:xlink="http://www.w3.org/1999/xlink">
    <!-- Generator: Sketch 52.5 (67469) - http://www.bohemiancoding.com/sketch -->
    <title>Slice</title>
    <desc>Created with Sketch.</desc>
    <g id="Page-1" stroke="none" stroke-width="1" fill="none" fill-rule="evenodd">
        <g id="Increasing-Awareness-carousel-1">
            <rect fill="#FFFFFF" x="0" y="0" width="1440" height="800"></rect>
            <polygon id="Fill-1-Copy-42" fill="#FFFFFF" points="0 800 1440 800 1440 0 0 0"></polygon>
            <path d="M668,455 C668,272.743761 520.253548,125 338,125 C155.746452,125 8,272.743761 8,455 C8,637.253548 155.746452,785 338,785 C520.253548,785 668,637.253548 668,455 Z" id="Fill-3-Copy-6" fill="#FFCE08"></path>
            <path d="M1366.02588,202.824607 C1394.75303,195.837041 1422.66125,186.017742 1449.37138,173.426287 L1395.0552,69.1912511 C1349.55579,89.8407 1299.47766,99.6407805 1248.06094,97.3884628 C1238.56189,96.972399 1229.14656,96.1450758 1219.83131,94.9276327 C1218.48888,94.746986 1217.14644,94.5451999 1215.80304,94.3482182 C1214.46734,94.1560409 1213.13164,93.9677072 1211.80172,93.7591948 C1202.52496,92.2736644 1193.2636,90.3855226 1184.03977,88.0784344 C1134.11562,75.5926764 1088.91741,51.9366139 1051.20701,19.1867224 L969.371382,103.620772 C991.373848,123.297804 1015.31827,140.656217 1040.88517,155.48942 C1089.16472,183.721224 1142.62059,202.39509 1198.872,210.465575 C1255.09646,218.754181 1311.66928,216.080995 1366.02588,202.824607 Z" id="Fill-1-Copy-38" fill="#2AD891" transform="translate(1209.371382, 117.186722) scale(-1, 1) rotate(190.000000) translate(-1209.371382, -117.186722) "></path>
        </g>
    </g>
</svg>