<?xml version="1.0" encoding="UTF-8"?>
<svg width="1441px" height="800px" viewBox="0 0 1441 800" version="1.1" xmlns="http://www.w3.org/2000/svg" xmlns:xlink="http://www.w3.org/1999/xlink">
    <!-- Generator: Sketch 52.5 (67469) - http://www.bohemiancoding.com/sketch -->
    <title>Slice</title>
    <desc>Created with Sketch.</desc>
    <g id="Page-1" stroke="none" stroke-width="1" fill="none" fill-rule="evenodd">
        <g id="Increasing-Awareness-carousel-2" transform="translate(1.000000, 0.000000)">
            <rect fill="#FFFFFF" x="0" y="0" width="1440" height="800"></rect>
            <polygon id="Fill-1-Copy-42" fill="#FFFFFF" points="0 800 1440 800 1440 0 0 0"></polygon>
            <path d="M1412.86964,680.012388 C1438.36499,673.77349 1463.13353,665.006259 1486.83878,653.763888 L1438.63316,560.696892 C1398.25243,579.1339 1353.8081,587.883972 1308.17576,585.872974 C1299.74535,585.501488 1291.38925,584.762807 1283.12196,583.675804 C1281.93055,583.514512 1280.73914,583.334346 1279.54687,583.15847 C1278.36144,582.986883 1277.17601,582.818728 1275.9957,582.632556 C1267.76258,581.30619 1259.54312,579.620349 1251.35697,577.560448 C1207.04928,566.41245 1166.93587,545.290966 1133.46789,516.049991 L1060.83878,591.437536 C1080.36596,609.006314 1101.61664,624.504897 1124.30726,637.748829 C1167.15537,662.955796 1214.59745,679.628891 1264.52057,686.834681 C1314.41978,694.235223 1364.62816,691.848449 1412.86964,680.012388 Z" id="Fill-1-Copy-38" fill="#EB419F" transform="translate(1273.838776, 603.549991) scale(1, -1) rotate(222.000000) translate(-1273.838776, -603.549991) "></path>
            <path d="M545,279.5 C545,133.418863 426.57898,15 280.5,15 C134.42102,15 16,133.418863 16,279.5 C16,425.57898 134.42102,544 280.5,544 C426.57898,544 545,425.57898 545,279.5 Z" id="Fill-3-Copy-6" fill="#2AD891"></path>
        </g>
    </g>
</svg>