<?xml version="1.0" encoding="UTF-8"?>
<svg width="1441px" height="800px" viewBox="0 0 1441 800" version="1.1" xmlns="http://www.w3.org/2000/svg" xmlns:xlink="http://www.w3.org/1999/xlink">
    <!-- Generator: Sketch 52.5 (67469) - http://www.bohemiancoding.com/sketch -->
    <title>Slice</title>
    <desc>Created with Sketch.</desc>
    <g id="Page-1" stroke="none" stroke-width="1" fill="none" fill-rule="evenodd">
        <g id="Increasing-Awareness-carousel-3" transform="translate(-2.000000, 0.000000)">
            <rect fill="#FFFFFF" x="0" y="0" width="1440" height="800"></rect>
            <polygon id="Fill-1-Copy-42" fill="#FFFFFF" points="0 800 1440 800 1440 0 0 0"></polygon>
            <path d="M83.6785868,29.0164367 L-5.64877607,91.9916107 C27.9614257,140.32046 69.8251674,181.033124 118.7795,212.997712 C169.489182,246.10881 225.582662,268.321367 285.498823,279.016437 L304.351224,170.770584 C214.461809,154.724324 136.091418,104.381468 83.6785868,29.0164367" id="Fill-5" fill="#FFCE08" transform="translate(149.351224, 154.016437) scale(-1, 1) rotate(190.000000) translate(-149.351224, -154.016437) "></path>
            <path d="M1432,607 C1432,504.826048 1349.17244,422 1247,422 C1144.82756,422 1062,504.826048 1062,607 C1062,709.172443 1144.82756,792 1247,792 C1349.17244,792 1432,709.172443 1432,607 Z" id="Fill-3-Copy-6" fill="#396DFF"></path>
        </g>
    </g>
</svg>