<?xml version="1.0" encoding="UTF-8"?>
<svg width="1439px" height="497px" viewBox="0 0 1439 497" version="1.1" xmlns="http://www.w3.org/2000/svg" xmlns:xlink="http://www.w3.org/1999/xlink">
    <!-- Generator: Sketch 52.5 (67469) - http://www.bohemiancoding.com/sketch -->
    <title>home</title>
    <desc>Created with Sketch.</desc>
    <g id="Page-1" stroke="none" stroke-width="1" fill="none" fill-rule="evenodd">
        <g id="home" transform="translate(0.000000, -4105.000000)">
            <rect fill="#FFFFFF" x="0" y="0" width="1440" height="34481"></rect>
            <g id="Group-74" transform="translate(-1.000000, 3750.000000)" fill="#FFFFFF">
                <polygon id="Fill-1-Copy-16" points="0 800 1440 800 1440 0 0 0"></polygon>
            </g>
            <g id="Group-75" transform="translate(-1.000000, 4550.000000)" fill="#FFFFFF">
                <polygon id="Fill-1-Copy-35" points="0 800 1440 800 1440 0 0 0"></polygon>
            </g>
            <path d="M1484.98095,4439.90393 C1516.88486,4432.12194 1547.87927,4421.18629 1577.54311,4407.16331 L1517.22044,4291.07777 C1466.68953,4314.07486 1411.07357,4324.98912 1353.971,4322.48073 C1343.4215,4322.01736 1332.96499,4321.09598 1322.61963,4319.74013 C1321.12874,4319.53894 1319.63785,4319.31422 1318.1459,4319.09484 C1316.66249,4318.88081 1315.17908,4318.67107 1313.70209,4318.43885 C1303.39948,4316.78443 1293.11396,4314.68163 1282.87012,4312.11224 C1227.42516,4298.20698 1177.22876,4271.86145 1135.3482,4235.38822 L1044.46288,4329.42159 C1068.89847,4351.33571 1095.49076,4370.6676 1123.88494,4387.1872 C1177.50343,4418.62868 1236.87065,4439.42558 1299.34255,4448.4136 C1361.78453,4457.64454 1424.61339,4454.66744 1484.98095,4439.90393 Z" id="Fill-1-Copy-38" fill="#3928BD" transform="translate(1311.002998, 4344.529858) scale(-1, 1) rotate(34.000000) translate(-1311.002998, -4344.529858) "></path>
            <path d="M142,4361.5 C142,4228.67386 34.3241763,4121 -98.5,4121 C-231.324176,4121 -339,4228.67386 -339,4361.5 C-339,4494.32418 -231.324176,4602 -98.5,4602 C34.3241763,4602 142,4494.32418 142,4361.5 Z" id="Fill-3" fill="#EB419F"></path>
        </g>
    </g>
</svg>