<?xml version="1.0" encoding="UTF-8"?>
<svg width="1440px" height="800px" viewBox="0 0 1440 800" version="1.1" xmlns="http://www.w3.org/2000/svg" xmlns:xlink="http://www.w3.org/1999/xlink">
    <!-- Generator: Sketch 52.5 (67469) - http://www.bohemiancoding.com/sketch -->
    <title>Group 71</title>
    <desc>Created with Sketch.</desc>
    <g id="Page-1" stroke="none" stroke-width="1" fill="none" fill-rule="evenodd">
        <g id="OneSpecialNight-carousel-0">
            <rect fill="#FFFFFF" x="0" y="0" width="1440" height="800"></rect>
            <g id="Group-71" transform="translate(-1.000000, -5.000000)">
                <polygon id="Fill-1-Copy-45" fill="#FFFFFF" points="0 805 1440 805 1440 5 0 5"></polygon>
                <g id="Group-21-Copy-3" transform="translate(120.000000, 145.000000)"></g>
                <path d="M391,202.5 C391,96.7361523 305.262286,11 199.5,11 C93.7377141,11 8,96.7361523 8,202.5 C8,308.262286 93.7377141,394 199.5,394 C305.262286,394 391,308.262286 391,202.5 Z" id="Fill-3-Copy-6" fill="#2AD891"></path>
                <path d="M1257.42376,17.5997822 L1240.50796,127.230089 C1260.29674,133.938469 1279.17838,143.577521 1296.5901,156.022584 C1314.00182,168.46876 1329.1546,183.157741 1341.75537,199.599782 L1442.50796,149.894106 C1421.05424,117.822552 1394.08747,90.0451631 1362.16488,67.227545 C1330.24228,44.4099269 1295.05554,27.7630832 1257.42376,17.5997822 Z" id="Fill-5" fill="#EB419F" transform="translate(1341.507964, 108.599782) scale(1, -1) rotate(11.000000) translate(-1341.507964, -108.599782) "></path>
            </g>
        </g>
    </g>
</svg>