<?xml version="1.0" encoding="UTF-8"?>
<svg width="1440px" height="800px" viewBox="0 0 1440 800" version="1.1" xmlns="http://www.w3.org/2000/svg" xmlns:xlink="http://www.w3.org/1999/xlink">
    <!-- Generator: Sketch 52.5 (67469) - http://www.bohemiancoding.com/sketch -->
    <title>OneSpecialNight-carousel-1</title>
    <desc>Created with Sketch.</desc>
    <g id="Page-1" stroke="none" stroke-width="1" fill="none" fill-rule="evenodd">
        <g id="OneSpecialNight-carousel-1">
            <rect fill="#FFFFFF" x="0" y="0" width="1440" height="800"></rect>
            <polygon id="Fill-1-Copy-42" fill="#FFFFFF" points="0 800 1440 800 1440 0 0 0"></polygon>
            <path d="M363.512647,738.837262 C391.825663,731.94655 419.331552,722.263355 445.656625,709.846428 L392.123476,607.056178 C347.27999,627.419408 297.923798,637.083651 247.248317,634.862552 C237.886204,634.452256 228.606607,633.6364 219.425647,632.435832 C218.102565,632.257689 216.779482,632.0587 215.455451,631.864448 C214.139008,631.674935 212.822565,631.489211 211.511812,631.283589 C202.368791,629.81865 193.240944,627.956679 184.150087,625.681569 C134.945646,613.368874 90.3990246,590.040705 53.2322629,557.744754 L-27.4236029,641.008477 C-5.7383287,660.412768 17.8609099,677.530579 43.0592289,692.158182 C90.6427753,719.998669 143.328014,738.413699 198.768489,746.372321 C254.182407,754.54604 309.939663,751.909906 363.512647,738.837262 Z" id="Fill-1-Copy-38" fill="#EB419F" transform="translate(209.116511, 654.386392) scale(-1, -1) rotate(19.000000) translate(-209.116511, -654.386392) "></path>
            <path d="M1436,241 C1436,109.0023 1328.99575,2 1197,2 C1065.00425,2 958,109.0023 958,241 C958,372.995751 1065.00425,480 1197,480 C1328.99575,480 1436,372.995751 1436,241 Z" id="Fill-3-Copy-8" fill="#3928BD"></path>
        </g>
    </g>
</svg>