<?xml version="1.0" encoding="UTF-8"?>
<svg width="1440px" height="800px" viewBox="0 0 1440 800" version="1.1" xmlns="http://www.w3.org/2000/svg" xmlns:xlink="http://www.w3.org/1999/xlink">
    <!-- Generator: Sketch 52.5 (67469) - http://www.bohemiancoding.com/sketch -->
    <title>september carousel-2</title>
    <desc>Created with Sketch.</desc>
    <g id="Page-1" stroke="none" stroke-width="1" fill="none" fill-rule="evenodd">
        <g id="september-carousel-2">
            <rect fill="#FFFFFF" x="0" y="0" width="1440" height="800"></rect>
            <polygon id="Fill-1-Copy-42" fill="#FFFFFF" points="0 800 1440 800 1440 0 0 0"></polygon>
            <path d="M1350.52962,767.346489 C1382.43353,759.564505 1413.42794,748.628849 1443.09178,734.605869 L1382.76911,618.520333 C1332.2382,641.517422 1276.62224,652.431675 1219.51967,649.923291 C1208.97018,649.459925 1198.51366,648.538543 1188.1683,647.182689 C1186.67741,646.981504 1185.18652,646.756777 1183.69457,646.537401 C1182.21116,646.323375 1180.72776,646.113629 1179.25076,645.881411 C1168.94815,644.22699 1158.66263,642.124185 1148.4188,639.554804 C1092.97383,625.649538 1042.77744,599.304014 1000.89688,562.830781 L910.011556,656.864153 C934.447139,678.77827 961.039431,698.110164 989.433612,714.629757 C1043.0521,746.071239 1102.41932,766.868141 1164.89122,775.85616 C1227.3332,785.0871 1290.16206,782.109999 1350.52962,767.346489 Z" id="Fill-1-Copy-38" fill="#2AD891" transform="translate(1176.551670, 671.972418) rotate(161.000000) translate(-1176.551670, -671.972418) "></path>
        </g>
    </g>
</svg>