<?xml version="1.0" encoding="UTF-8"?>
<svg width="1440px" height="800px" viewBox="0 0 1440 800" version="1.1" xmlns="http://www.w3.org/2000/svg" xmlns:xlink="http://www.w3.org/1999/xlink">
    <!-- Generator: Sketch 52.5 (67469) - http://www.bohemiancoding.com/sketch -->
    <title>september carousel-1</title>
    <desc>Created with Sketch.</desc>
    <g id="Page-1" stroke="none" stroke-width="1" fill="none" fill-rule="evenodd">
        <g id="september-carousel-1">
            <rect fill="#FFFFFF" x="0" y="0" width="1440" height="800"></rect>
            <polygon id="Fill-1-Copy-42" fill="#FFFFFF" points="0 800 1440 800 1440 0 0 0"></polygon>
            <path d="M1191.12868,137.348983 C1201.9347,131.408149 1211.76214,124.403285 1220.57773,116.54221 L1220.5306,116.48125 C1254.37359,86.220126 1274.8629,42.0795073 1274.03401,-6.11495489 L1389.06911,-5.88774016 C1390.26115,50.8882346 1374.20736,105.616506 1342.64312,152.201069 L1342.73738,152.256487 C1330.74762,170.026342 1316.651,186.283279 1300.68592,200.750207 C1297.12919,203.997716 1293.50038,207.148242 1289.79118,210.190703 L1289.7496,210.135284 C1277.0668,220.451388 1263.34719,229.714544 1248.67672,237.780667 C1210.26793,258.897783 1168.1333,270.363815 1125.15038,271.885045 L1125.13098,156.975349 C1147.7327,155.249071 1170.21245,148.848266 1191.12868,137.348983" id="Fill-4" fill="#EB419F" transform="translate(1257.130978, 132.885045) rotate(77.000000) translate(-1257.130978, -132.885045) "></path>
        </g>
    </g>
</svg>