<?xml version="1.0" encoding="UTF-8"?>
<svg width="1440px" height="788px" viewBox="0 0 1440 788" version="1.1" xmlns="http://www.w3.org/2000/svg" xmlns:xlink="http://www.w3.org/1999/xlink">
    <!-- Generator: Sketch 52.5 (67469) - http://www.bohemiancoding.com/sketch -->
    <title>home</title>
    <desc>Created with Sketch.</desc>
    <defs>
        <rect id="path-1" x="0" y="0" width="407" height="222"></rect>
    </defs>
    <g id="Page-1" stroke="none" stroke-width="1" fill="none" fill-rule="evenodd">
        <g id="home" transform="translate(0.000000, -811.000000)">
            <rect fill="#FFFFFF" x="0" y="0" width="1440" height="34481"></rect>
            <polygon id="Fill-1-Copy-17" fill="#FFFFFF" points="0 1599 1440 1599 1440 799 0 799"></polygon>
            <path d="M-61.5719519,848 L-81,973.894144 C-58.2722939,981.597723 -36.5864504,992.666744 -16.5888337,1006.95805 C3.40878296,1021.25064 20.8119828,1038.11875 35.2841443,1057 L151,999.920404 C126.360079,963.090983 95.3883482,931.192772 58.724771,904.990123 C22.0611939,878.787474 -18.3512965,859.671043 -61.5719519,848 Z" id="Fill-5" fill="#396DFF" transform="translate(35.000000, 952.500000) scale(-1, 1) translate(-35.000000, -952.500000) "></path>
            <path d="M1448.7514,1359.18371 C1437.08722,1365.59495 1426.47726,1373.15387 1416.96087,1381.63721 L1417.00965,1381.70324 C1380.4751,1414.35845 1358.35673,1461.99315 1359.25204,1514 L1235.06696,1513.75474 C1233.77828,1452.4879 1251.1117,1393.42522 1285.18534,1343.15717 L1285.08307,1343.09743 C1298.02649,1323.92029 1313.24515,1306.37663 1330.47945,1290.76514 C1334.31873,1287.25923 1338.23669,1283.86024 1342.24118,1280.57758 L1342.28524,1280.63575 C1355.97921,1269.50333 1370.78877,1259.50757 1386.62739,1250.80255 C1428.09165,1228.01418 1473.57614,1215.64133 1519.97797,1214 L1520,1338.00365 C1495.59852,1339.86822 1471.33079,1346.77469 1448.7514,1359.18371" id="Fill-1" fill="#FFCE08" transform="translate(1377.500000, 1364.000000) scale(-1, -1) translate(-1377.500000, -1364.000000) "></path>
            <g id="Group-16" transform="translate(635.000000, 1326.000000)"></g>
            <g id="Fill-3" transform="translate(49.000000, 1377.000000)">
                <mask id="mask-2" fill="white">
                    <use xlink:href="#path-1"></use>
                </mask>
                <g id="Mask" fill-rule="nonzero"></g>
                <path d="M203.5,512 C315.889688,512 407,420.889688 407,308.5 C407,196.108653 315.889688,105 203.5,105 C91.1103123,105 0,196.108653 0,308.5 C0,420.889688 91.1103123,512 203.5,512" fill="#2AD891" mask="url(#mask-2)"></path>
            </g>
        </g>
    </g>
</svg>