<?xml version="1.0" encoding="UTF-8"?>
<svg width="246px" height="258px" viewBox="0 0 246 258" version="1.1" xmlns="http://www.w3.org/2000/svg" xmlns:xlink="http://www.w3.org/1999/xlink">
    <!-- Generator: Sketch 52.5 (67469) - http://www.bohemiancoding.com/sketch -->
    <title>Fill 4</title>
    <desc>Created with Sketch.</desc>
    <g id="Page-1" stroke="none" stroke-width="1" fill="none" fill-rule="evenodd">
        <g id="home" transform="translate(-147.000000, -6008.000000)" fill="#FFFFFF">
            <g id="Group-76" transform="translate(0.000000, 5349.000000)">
                <g id="Group-17" transform="translate(147.000000, 417.000000)">
                    <path d="M61.4938418,375.613129 C71.5624348,370.120463 80.7192235,363.644035 88.9332117,356.375986 L88.8893005,356.319625 C120.422749,328.341354 139.513814,287.530634 138.741493,242.971888 L245.92629,243.181962 C247.036986,295.674845 232.078745,346.274501 202.668535,389.344796 L202.756357,389.396034 C191.584817,405.825359 178.450185,420.855898 163.574601,434.231464 C160.260592,437.233985 156.879425,440.14684 153.423351,442.959783 L153.384606,442.908545 C141.567311,452.446418 128.78397,461.010776 115.114653,468.468404 C79.3269784,487.992477 40.0677311,498.593529 0.0180811061,500 L0,393.758913 C21.0593225,392.162862 42.0049924,386.244924 61.4938418,375.613129" id="Fill-4" transform="translate(122.991968, 371.485944) scale(-1, 1) translate(-122.991968, -371.485944) "></path>
                </g>
            </g>
        </g>
    </g>
</svg>