<?xml version="1.0" encoding="UTF-8"?>
<svg width="245px" height="257px" viewBox="0 0 245 257" version="1.1" xmlns="http://www.w3.org/2000/svg" xmlns:xlink="http://www.w3.org/1999/xlink">
    <!-- Generator: Sketch 52.5 (67469) - http://www.bohemiancoding.com/sketch -->
    <title>Fill 4</title>
    <desc>Created with Sketch.</desc>
    <g id="Page-1" stroke="none" stroke-width="1" fill="none" fill-rule="evenodd">
        <g id="home" transform="translate(-1038.000000, -15610.000000)" fill="#2AD891">
            <g id="Group-21-Copy" transform="translate(1032.500000, 15617.000000) scale(-1, 1) translate(-1032.500000, -15617.000000) translate(782.000000, 15367.000000)">
                <path d="M61.2176067,375.634845 C71.2409709,370.143137 80.3566266,363.66784 88.533717,356.40106 L88.490003,356.344709 C119.881801,328.371322 138.887108,287.567728 138.118256,243.01676 L244.82157,243.226797 C245.927277,295.710516 231.03623,346.301338 201.758132,389.364115 L201.84556,389.415343 C190.724203,405.8418 177.648573,420.869715 162.839811,434.242946 C159.540689,437.244943 156.174711,440.15729 152.734162,442.969741 L152.69559,442.918512 C140.93138,452.454719 128.205462,461.017583 114.59755,468.473908 C78.9706355,487.994573 39.8877438,498.593774 0.0179998844,500 L0,393.77746 C20.9647225,392.181689 41.8163028,386.264783 61.2176067,375.634845" id="Fill-4" transform="translate(122.439479, 371.508380) scale(-1, 1) translate(-122.439479, -371.508380) "></path>
            </g>
        </g>
    </g>
</svg>