<?xml version="1.0" encoding="UTF-8"?>
<svg width="245px" height="258px" viewBox="0 0 245 258" version="1.1" xmlns="http://www.w3.org/2000/svg" xmlns:xlink="http://www.w3.org/1999/xlink">
    <!-- Generator: Sketch 52.5 (67469) - http://www.bohemiancoding.com/sketch -->
    <title>Fill 4</title>
    <desc>Created with Sketch.</desc>
    <g id="Page-1" stroke="none" stroke-width="1" fill="none" fill-rule="evenodd">
        <g id="home" transform="translate(-135.000000, -12043.000000)" fill="#FFCE08">
            <g id="Group-21" transform="translate(135.000000, 11801.000000)">
                <path d="M61.2128209,375.622211 C71.2354015,370.129946 80.3503445,363.653991 88.5267956,356.386473 L88.483085,356.330116 C119.872429,328.353887 138.87625,287.546148 138.107458,242.990654 L244.80243,243.200713 C245.908051,295.689764 231.018168,346.285725 201.742359,389.352876 L201.829781,389.40411 C190.709293,405.832235 177.634685,420.861677 162.827081,434.236266 C159.528217,437.238568 156.162502,440.151211 152.722221,442.963947 L152.683653,442.912714 C140.920363,452.44989 128.195439,461.013623 114.588591,468.470706 C78.9644618,487.993354 39.8846254,498.593632 0.0179984772,500 L0,393.76667 C20.9630835,392.170736 41.8130337,386.25323 61.2128209,375.622211" id="Fill-4" transform="translate(122.429907, 371.495327) scale(-1, 1) translate(-122.429907, -371.495327) "></path>
            </g>
        </g>
    </g>
</svg>