<?xml version="1.0" encoding="UTF-8"?>
<svg width="402px" height="346px" viewBox="0 0 402 346" version="1.1" xmlns="http://www.w3.org/2000/svg" xmlns:xlink="http://www.w3.org/1999/xlink">
    <!-- Generator: Sketch 52.5 (67469) - http://www.bohemiancoding.com/sketch -->
    <title>Fill 1 Copy 37</title>
    <desc>Created with Sketch.</desc>
    <g id="Page-1" stroke="none" stroke-width="1" fill="none" fill-rule="evenodd">
        <g id="home" transform="translate(0.000000, -13029.000000)" fill="#3928BD">
            <path d="M139.259171,13326.7524 C208.485539,13336.9863 278.140824,13333.6858 345.067387,13317.3182 L345.04843,13317.2529 C380.437694,13308.6907 414.799688,13296.5668 447.686537,13281.0202 L380.809738,13152.3219 C324.788585,13177.8176 263.12989,13189.9177 199.82306,13187.1368 C188.127352,13186.6231 176.534725,13185.6016 165.065324,13184.0984 C163.412451,13183.8754 161.759577,13183.6262 160.105519,13183.383 C158.46094,13183.1458 156.81636,13182.9132 155.17889,13182.6558 C143.756883,13180.8216 132.353834,13178.4903 120.996994,13175.6418 C59.527875,13160.2257 3.87758178,13131.0177 -42.5533508,13090.5816 L-143.313463,13194.8318 C-116.222926,13219.1269 -86.7413518,13240.5592 -55.2621109,13258.8737 L-55.2976565,13258.9318 C4.18208965,13293.7313 69.9996279,13316.7878 139.259171,13326.7524" id="Fill-1-Copy-37" transform="translate(152.186537, 13211.581598) scale(-1, 1) rotate(-36.000000) translate(-152.186537, -13211.581598) "></path>
        </g>
    </g>
</svg>