<?xml version="1.0" encoding="UTF-8"?>
<svg width="280px" height="310px" viewBox="0 0 280 310" version="1.1" xmlns="http://www.w3.org/2000/svg" xmlns:xlink="http://www.w3.org/1999/xlink">
    <!-- Generator: Sketch 52.5 (67469) - http://www.bohemiancoding.com/sketch -->
    <title>Fill 1 Copy</title>
    <desc>Created with Sketch.</desc>
    <g id="Page-1" stroke="none" stroke-width="1" fill="none" fill-rule="evenodd">
        <g id="home" transform="translate(-1160.000000, -9719.000000)" fill="#EB419F">
            <path d="M1427.25917,9961.75243 C1496.48554,9971.98632 1566.14082,9968.68575 1633.06739,9952.31817 L1633.04843,9952.25292 C1668.43769,9943.69066 1702.79969,9931.56684 1735.68654,9916.02024 L1668.80974,9787.32188 C1612.78859,9812.81763 1551.12989,9824.91773 1487.82306,9822.13681 C1476.12735,9821.6231 1464.53473,9820.60161 1453.06532,9819.09844 C1451.41245,9818.87539 1449.75958,9818.62625 1448.10552,9818.38304 C1446.46094,9818.14576 1444.81636,9817.91322 1443.17889,9817.65577 C1431.75688,9815.8216 1420.35383,9813.49032 1408.99699,9810.64177 C1347.52787,9795.22568 1291.87758,9766.01769 1245.44665,9725.5816 L1144.68654,9829.8318 C1171.77707,9854.12691 1201.25865,9875.55924 1232.73789,9893.8737 L1232.70234,9893.93184 C1292.18209,9928.73134 1357.99963,9951.78785 1427.25917,9961.75243" id="Fill-1-Copy" transform="translate(1440.186537, 9846.581598) scale(-1, -1) rotate(-36.000000) translate(-1440.186537, -9846.581598) "></path>
        </g>
    </g>
</svg>