<?xml version="1.0" encoding="UTF-8"?>
<svg width="394px" height="232px" viewBox="0 0 394 232" version="1.1" xmlns="http://www.w3.org/2000/svg" xmlns:xlink="http://www.w3.org/1999/xlink">
    <!-- Generator: Sketch 52.5 (67469) - http://www.bohemiancoding.com/sketch -->
    <title>Fill 1 Copy 38</title>
    <desc>Created with Sketch.</desc>
    <g id="Page-1" stroke="none" stroke-width="1" fill="none" fill-rule="evenodd">
        <g id="september-carousel-0" transform="translate(-1037.000000, -555.000000)" fill="#FFFFFF">
            <g id="Group-52" transform="translate(-2.000000, 0.000000)">
                <path d="M1385.0177,754.413497 C1410.4532,748.210249 1435.1636,739.493117 1458.8132,728.314988 L1410.72074,635.779803 C1370.4348,654.111457 1326.0948,662.811529 1280.56958,660.812022 C1272.15896,660.442659 1263.82247,659.708199 1255.57459,658.627408 C1254.38598,658.467038 1253.19736,658.287901 1252.0079,658.113029 C1250.82525,657.942423 1249.6426,657.775229 1248.46506,657.590121 C1240.25126,656.271334 1232.0511,654.595126 1223.88417,652.546997 C1179.68049,641.462701 1139.66124,620.461911 1106.27182,591.388028 L1033.8132,666.344786 C1053.29455,683.813172 1074.49534,699.223191 1097.1327,712.391444 C1139.88022,737.454371 1187.21093,754.032191 1237.01687,761.196806 C1286.79894,768.555058 1336.88946,766.181923 1385.0177,754.413497 Z" id="Fill-1-Copy-38" transform="translate(1246.313196, 678.388028) scale(1, -1) rotate(148.000000) translate(-1246.313196, -678.388028) "></path>
            </g>
        </g>
    </g>
</svg>