<?xml version="1.0" encoding="UTF-8"?>
<svg width="470px" height="204px" viewBox="0 0 470 204" version="1.1" xmlns="http://www.w3.org/2000/svg" xmlns:xlink="http://www.w3.org/1999/xlink">
    <!-- Generator: Sketch 52.5 (67469) - http://www.bohemiancoding.com/sketch -->
    <title>Fill 1</title>
    <desc>Created with Sketch.</desc>
    <g id="Page-1" stroke="none" stroke-width="1" fill="none" fill-rule="evenodd">
        <g id="home" transform="translate(0.000000, -7070.000000)" fill="#3928BD">
            <path d="M189.261188,7281.15284 C252.045169,7290.41409 315.218152,7287.42721 375.916355,7272.61523 L375.899161,7272.55618 C407.995008,7264.80769 439.159186,7253.83613 468.985499,7239.7671 L408.332429,7123.30041 C357.524751,7146.373 301.604174,7157.32309 244.188843,7154.80647 C233.581568,7154.34159 223.067782,7153.41718 212.665753,7152.05687 C211.1667,7151.85503 209.667647,7151.62956 208.16752,7151.40947 C206.675989,7151.19474 205.184459,7150.9843 203.699376,7150.75132 C193.34033,7149.09147 182.998479,7146.98176 172.698536,7144.40394 C116.949894,7130.45302 66.4785616,7104.02099 24.3686126,7067.428 L-67.0145007,7161.77013 C-42.4450804,7183.7562 -15.7071379,7203.15157 12.8425629,7219.7254 L12.8103252,7219.77801 C66.7547312,7251.27012 126.447118,7272.13531 189.261188,7281.15284" id="Fill-1" transform="translate(200.985499, 7176.927998) rotate(-184.000000) translate(-200.985499, -7176.927998) "></path>
        </g>
    </g>
</svg>