<?xml version="1.0" encoding="UTF-8"?>
<svg width="420px" height="290px" viewBox="0 0 420 290" version="1.1" xmlns="http://www.w3.org/2000/svg" xmlns:xlink="http://www.w3.org/1999/xlink">
    <!-- Generator: Sketch 52.5 (67469) - http://www.bohemiancoding.com/sketch -->
    <title>Fill 1</title>
    <desc>Created with Sketch.</desc>
    <g id="Page-1" stroke="none" stroke-width="1" fill="none" fill-rule="evenodd">
        <g id="home" transform="translate(0.000000, -2577.000000)" fill="#FFFFFF">
            <path d="M103.310149,2831.05039 C173.942129,2841.49573 245.011734,2838.12697 313.297212,2821.42121 L313.27787,2821.35461 C349.385698,2812.61545 384.445397,2800.24113 418,2784.37333 L349.765296,2653.01591 C292.606658,2679.03843 229.696009,2691.38853 165.103762,2688.55015 C153.170577,2688.02583 141.342568,2686.98323 129.640285,2685.449 C127.953851,2685.22135 126.267416,2684.96706 124.579773,2684.71882 C122.901801,2684.47664 121.223829,2684.2393 119.553111,2683.97653 C107.899185,2682.10446 96.2646017,2679.72502 84.677166,2676.81762 C21.9599435,2661.08301 -34.8203049,2631.27155 -82.1939975,2590 L-185,2696.40413 C-157.359402,2721.20121 -127.279217,2743.07635 -95.1608035,2761.76922 L-95.1970709,2761.82855 C-34.5096142,2797.34705 32.6443208,2820.87993 103.310149,2831.05039" id="Fill-1" transform="translate(116.500000, 2713.500000) scale(1, -1) rotate(-25.000000) translate(-116.500000, -2713.500000) "></path>
        </g>
    </g>
</svg>